# xmcd
#
# Track frame offsets: 
#        150
#        19273
#        38846
#        65953
#        82822
#        101042
#        122743
#        142684
#        165109
#        184087
#        202304
#
# Disc length: 2927 seconds
#
# Revision: 0
# Processed by: cddbd v1.4PL0 Copyright (c) Steve Scherf et al.
# Submitted via: ExactAudioCopy v0.90b4
#
DISCID=910b6d0b
DTITLE=Michael Hill´s Blues Mob - New York State Of Blues
DYEAR=1998
DGENRE=Blues
TTITLE0=Long Hot Night
TTITLE1=A Case Of The Blues
TTITLE2=Soul Doin´ Time
TTITLE3=Young Folk´s Blues
TTITLE4=Papa Was A Rollin´ Stone Mama Sang The Blues
TTITLE5=Anytime, Anywhere
TTITLE6=New York State Of Blues
TTITLE7=Living For The City
TTITLE8=This Is My Job
TTITLE9=Up And Down The Stairs
TTITLE10=Never Give Up On You
EXTD=
EXTT0=
EXTT1=
EXTT2=
EXTT3=
EXTT4=
EXTT5=
EXTT6=
EXTT7=
EXTT8=
EXTT9=
EXTT10=
PLAYORDER=
